<?xml version="1.0"?><svg width="765" height="990" xmlns="http://www.w3.org/2000/svg">
 <title>Black &amp; White Lion Head</title>
 <metadata id="metadata5769">image/svg+xml</metadata>

 <g>
  <title>Layer 1</title>
  <rect id="svg_1" height="1000.999853" width="778.999974" y="-11.999847" x="-1" stroke-width="5" fill="#000000"/>
  <path fill="#ffffff" fill-rule="nonzero" id="path5775" d="m201.439117,191.954697c0,0 -17.648804,-30.940552 -51.280807,-28.859314c0,0 51.791199,0.075714 23.912918,-45.948753l46.998779,53.298576l-19.63089,21.509491"/>
  <path fill="#ffffff" fill-rule="nonzero" id="path5777" d="m256.489777,146.380951c0,0 -19.505051,14.314011 -36.766846,1.164459c-17.270172,-13.15593 -22.512848,-33.196404 -22.512848,-33.196404c0,0 27.690659,-2.243919 29.92717,-29.705406c0,0 -6.523804,51.911331 29.352524,61.73735"/>
  <path fill="#ffffff" fill-rule="nonzero" id="path5779" d="m276.500946,142.664536c0,0 -40.285019,-17.562164 -37.343018,-64.903381c2.940216,-47.349651 30.170105,-44.102821 48.463776,-49.1348c0,0 -29.091583,42.018177 -3.383118,92.22414l-7.73764,21.814041"/>
  <path fill="#ffffff" fill-rule="nonzero" id="path5781" d="m324.954041,14.781513c-24.640594,9.517664 -35.955048,20.706768 -39.060242,91.283306l23.595917,-8.269539c0,0 33.565491,-57.57048 81.965759,-83.408339c0,0 -18.228424,-18.256535 -66.501434,0.394571"/>
  <path fill="#ffffff" fill-rule="nonzero" id="path5783" d="m324.645325,91.829613c0,0 53.002533,-9.206337 48.589355,22.438782c0,0 77.812836,-66.147659 178.578857,-25.850647c0,0 -57.293152,-123.863026 -227.168213,3.411865"/>
  <path fill="#ffffff" fill-rule="nonzero" id="path5785" d="m410.700989,132.59697c-10.714569,-0.7621 -6.550995,-9.317314 -18.026276,-9.354393c0,0 212.777618,-80.010216 272.504242,104.037102c0,0 -90.999268,-82.968582 -254.477966,-94.682709"/>
  <path fill="#ffffff" fill-rule="nonzero" id="path5787" d="m389.478516,145.595413c0,0 150.929382,-24.169472 242.005249,107.062378c73.021301,105.215256 45.470398,100.259872 132.611755,138.940598c0,0 -12.337402,44.561615 -77.680969,19.579407c0,0 7.997192,81.933167 -49.282898,154.966492c0,0 10.41156,-172.9086 -109.224854,-234.87912c0,0 143.738464,221.80069 25.848083,358.047272c0,0 -36.848267,-329.963196 -150.588562,-407.859467c0,0 75.506775,23.983551 89.447968,66.689484c0,0 -3.895416,-75.909485 -94.820831,-118.922195c0,0 13.551636,-14.464417 10.994781,-28.073898c0,0 35.354797,-0.776093 51.97757,8.973282c0,0 -27.677643,-37.130829 -63.16687,-29.165863l-8.120422,-35.358368"/>
  <path fill="#ffffff" fill-rule="nonzero" id="path5789" d="m479.3703,206.781235c0,0 126.158325,88.819992 147.582153,202.855087c0,0 -5.5047,-163.166794 -147.582153,-202.855087"/>
  <path fill="#ffffff" fill-rule="nonzero" id="path5791" d="m323.918884,135.741425c-7.181549,-3.477402 -19.350525,-5.28952 -19.347198,22.472122l-12.33847,5.190811c0,0 -2.502655,-55.504112 35.805847,-57.306114c5.473816,-0.251266 22.826508,9.039078 27.47052,18.614258c9.764404,20.12191 8.904907,19.068535 13.696289,78.381645c1.348633,16.530365 -23.139557,42.16008 -33.177063,35.963501c-10.035767,-6.188339 5.878906,-15.938766 5.878906,-15.938766l-10.928314,-71.59108c0,0 -4.044769,-14.329742 -7.060516,-15.786377"/>
  <path fill="#ffffff" fill-rule="nonzero" id="path5793" d="m137.216324,429.488342c-3.854782,0.882477 -1.637115,4.35556 -6.047775,5.871063c-4.409409,1.506531 -5.475113,-3.813416 -10.591049,-4.28302c-4.582245,-0.438751 -9.131546,5.046844 -14.060814,2.150696c0,0 25.413048,29.952423 34.689323,25.354858c0,0 10.01001,-0.707428 14.322495,-40.75769c0,0 -8.84465,9.477997 -18.31218,11.664093"/>
  <path fill="#ffffff" fill-rule="nonzero" id="path5795" d="m382.089722,292.098389c0,0 151.247803,175.213776 130.579773,326.125671c-20.676636,150.905212 -13.937073,240.700928 57.294556,241.967163c0,0 -137.473572,23.439453 -121.438477,-232.507263c13.944763,-222.698669 -66.435852,-335.585571 -66.435852,-335.585571"/>
  <path fill="#ffffff" fill-rule="nonzero" id="path5797" d="m344.912079,517.095581c0,0 49.241455,-70.822144 49.021851,-80.991425c0,0 49.092224,87.059052 23.093536,243.48465c-26.000336,156.41687 51.699463,208.155701 118.216003,218.289246c0,0 -173.116852,56.762756 -165.769653,-189.979797c5.434113,-182.303345 -24.561737,-190.802673 -24.561737,-190.802673"/>
  <path fill="#ffffff" fill-rule="nonzero" id="path5799" d="m251.008118,604.419556c0,0 56.843079,7.714844 73.523254,-82.171509c0,0 41.821747,70.743164 31.852783,218.69458c-12.153015,180.388245 92.75415,221.2453 158.370239,226.546997c0,0 -224.591858,37.403992 -212.199097,-280.786926c0,0 -92.669403,154.447144 93.845886,294.047729c0,0 -189.375046,-34.221619 -160.837509,-266.475952c0,0 -44.613129,8.21521 -54.517899,-26.634888c0,0 80.773865,1.132507 113.59964,-69.844604c0,0 -25.173218,8.952515 -43.637299,-13.375427"/>
  <path fill="#ffffff" fill-rule="nonzero" id="path5801" d="m352.593567,272.093262c-20.017944,3.718323 -32.805847,-24.983368 -32.805847,-24.983368c-37.78363,58.712982 -74.945526,43.414063 -74.945526,43.414063c0,0 7.481476,-4.317383 31.20166,-19.790863c23.718658,-15.481934 -13.541534,-29.348495 -18.150757,-45.978104c-4.602325,-16.63176 16.245514,-47.433517 16.245514,-47.433517c0,0 -0.228394,-5.167786 -9.127045,-7.025284c-2.633698,-0.556686 -1.42865,-9.756851 -5.963257,-10.297516c-18.160858,-2.165421 -60.86618,38.215866 -70.906494,71.408783c-3.36026,11.109543 -6.917999,22.851685 -10.172501,33.585037c5.487381,6.434387 13.997635,6.575378 24.613113,-24.925705c0,0 0.926987,42.852158 -31.660416,55.26741c10.772186,13.511475 19.029144,39.500824 44.383743,-2.72583l13.122894,1.567566c0,0 -39.601517,28.141113 -16.842575,46.877167c0,0 -27.298538,-8.698792 -46.997971,-35.089935c-74.710258,104.825409 -56.560829,122.160522 -56.560829,122.160522c50.703987,2.16272 50.132027,-25.584991 50.132027,-25.584991c16.754196,41.932404 -16.81192,60.114136 -16.81192,60.114136c0.834137,12.312927 10.422562,23.988342 10.422562,23.988342c20.81546,-2.57666 33.539856,-2.269379 41.23262,-1.494476c25.983765,2.593262 33.119171,20.929932 33.541885,23.179779c0.797699,4.246033 -1.328232,6.547607 -2.470245,6.416931c-1.697372,-0.191284 -23.17131,-17.350311 -23.17131,-17.350311l-50.197403,11.752655c9.358078,46.49292 42.052017,53.921021 42.052017,53.921021c-7.992538,-3.165405 -2.430313,-20.805054 -2.430313,-20.805054c14.322968,21.11853 20.526321,6.887573 20.526321,6.887573l-1.981522,-26.301453c24.103012,41.698914 64.316055,3.782471 40.595016,-20.114929c-18.901169,-19.058777 -11.102783,-40.862762 -7.145569,-48.951874c3.037323,-10.753998 12.723206,-26.112 41.83316,-37.19693c0.231323,-0.099274 0.360992,-0.15274 0.360992,-0.15274c-0.124237,0.043091 -0.23822,0.101166 -0.360992,0.15274c-3.032135,1.234283 -23.632599,10.343414 -27.190125,28.543335c76.544128,-28.331055 49.152802,59.911469 49.152802,59.911469c81.319885,-86.806671 10.863953,-178.405914 -28.076996,-133.678497c-38.928406,44.715057 -71.417465,-17.947479 -71.417465,-17.947479c33.381149,51.680328 64.963455,7.189026 71.163223,-7.040894c6.198303,-14.238647 55.176697,-52.769257 71.995697,5.254761c16.812073,58.02594 35.483185,31.407806 35.483185,31.407806c-13.620239,-40.997559 -32.671356,-110.941345 -32.671356,-110.941345"/>
 </g>
</svg>