<?xml version="1.0" encoding="utf-8"?>
<!-- Generator: Adobe Illustrator 21.0.0, SVG Export Plug-In . SVG Version: 6.00 Build 0)  -->
<svg version="1.1"
	 id="svg2" inkscape:version="0.91 r13725" sodipodi:docname="logo.svg"  xmlns:inkscape="http://www.inkscape.org/namespaces/inkscape" xmlns:sodipodi="http://sodipodi.sourceforge.net/DTD/sodipodi-0.dtd"
	 xmlns="http://www.w3.org/2000/svg" x="0px" y="0px" viewBox="0 0 207.4 141.4"
	 style="enable-background:new 0 0 207.4 141.4;" xml:space="preserve">
<g id="layer1" transform="translate(-594.94581,-1553.6639)" inkscape:groupmode="layer" inkscape:label="Calque 1">
	<path id="path4171" inkscape:connector-curvature="0" style="fill:#B7B6AA;" d="M628.1,1689.4c0.7-15.8,3.7-32.3,8.7-48.2
		c0.8-2.6,1.6-5.1,1.7-5.4c0.1-0.4-0.8,0.9-1.9,2.8c-5.9,9.7-14.2,20.4-20.5,26.4l-1.8,1.8l0.2-4.5c0.5-10.6,3-24.2,6.7-35.5
		c0.8-2.4,1.4-4.4,1.3-4.5c-0.1-0.1-0.5,0.7-1,1.6c-1.5,2.7-6.3,9.7-8.8,12.9c-2.8,3.5-7.8,9-8.2,9c-0.5,0,0.3-9.4,1.3-14.8
		c0.7-3.8,2.5-11.4,3.5-14.2c0.3-1,0.6-1.8,0.5-1.8s-1.1,1.4-2.3,3.3c-2.6,4-6.4,8.7-8.9,11.2l-1.8,1.8l0.2-2.6
		c1.5-19.1,9.8-38.6,22-51.4l2.4-2.6l-0.2,3.5c-0.2,4.1-1.1,9.7-2.2,13.9c-0.4,1.6-0.7,3.1-0.7,3.1c0.1,0.1,0.7-0.8,1.3-2
		c1.9-3.5,6.4-10.1,9.3-13.8c3.2-4,7.8-9,8.2-9c0.4,0,0,6.3-0.8,11.5c-0.8,5.8-2.6,13.5-4,17.3c-0.5,1.3,0.4-0.1,2.9-4.4
		c5.8-10.3,14.5-21.9,21.7-28.9l2.5-2.4l-0.2,4.1c-0.5,9.8-2.8,22.9-5.6,32c-0.3,1.1-0.6,2.1-0.5,2.2c0.1,0.1,0.9-1.3,1.8-3
		c7.9-14.3,18.8-29.3,29.4-40.1l4.1-4.2l0,2.3c0,6.2-1.4,18.7-3.2,28.3c-5.7,30.1-19.9,62.5-38.1,86.8c-5.1,6.8-11.6,14.4-16.5,19.1
		l-2.6,2.6L628.1,1689.4L628.1,1689.4z M695.3,1648.4c-5.8-1.1-10.2-4.1-12.3-8.3c-0.8-1.6-1.7-5.1-1.7-6.8l0-0.9h4h4l0.2,0.9
		c0.9,4.5,2.6,6.6,6.5,8.1c2.6,1,7.7,1,10.3,0c2.2-0.9,4.3-3,4.6-4.7c0.4-1.9,0-3.9-1-5.1c-1.4-1.8-4.1-2.9-10.7-4.5
		c-6.9-1.6-9-2.3-11.4-3.9c-2.8-1.9-4.2-4.1-4.7-7.6c-1.2-8.7,6.2-15.4,16.8-15.4c10,0,16.7,5,17.9,13.5l0.2,1.5h-4
		c-3,0-4.1-0.1-4.1-0.4c-0.9-3.2-1.3-4.1-2.3-5.2c-1.7-1.8-3.6-2.5-7-2.6c-3.5-0.2-6,0.4-7.6,1.8c-1.4,1.3-1.9,2.5-1.7,4.6
		c0.3,3.2,2.6,4.8,9.2,6.4c9.4,2.2,12.8,3.5,15.3,5.9c2.6,2.5,3.9,6.9,3.2,10.8c-1.4,7.7-8.2,12.1-18.6,12
		C698.3,1648.7,696,1648.6,695.3,1648.4L695.3,1648.4z M776.1,1648.2c-4.9-1-9.3-4.1-11.3-7.7c-1-1.9-1.9-5.3-1.9-7.1l0-0.9h4h4
		l0.3,1.6c0.9,4.3,3.7,7,8.3,7.9c4.9,1,9.8-0.3,12.1-3.3c1.7-2.2,1.3-6-0.7-7.9c-1.1-1-4.1-2.2-7.5-3c-8.2-2-9.8-2.4-11.9-3.5
		c-3.9-1.9-5.9-4.5-6.5-8.6c-0.8-5,1.7-10.2,6.2-12.8c3-1.8,5.5-2.4,9.4-2.6c10.1-0.4,17,4,18.7,12.1c0.3,1.3,0.4,2.4,0.2,2.6
		c-0.2,0.2-2,0.2-4.1,0.2l-3.8-0.1l-0.4-1.5c-1.2-4.6-4.3-6.7-9.9-6.7c-5.3,0-8.4,2.2-8.4,5.9c0,3.8,2.3,5.5,10,7.3
		c8.8,2,12.2,3.4,14.7,5.8c4.8,4.8,4.4,13.6-0.8,18.3c-2,1.9-5.3,3.4-8.6,4.1C784.9,1648.9,779.1,1648.9,776.1,1648.2L776.1,1648.2z
		 M722.2,1647.4c-0.1-0.2-0.1-10.7-0.1-23.2l0.1-22.8l13.4,0c13.2,0,13.4,0,15.5,0.7c5.3,1.9,7.2,4.8,7.2,10.7
		c0,3.2-0.1,3.7-0.9,5.1c-0.9,1.7-2.5,3.3-4.2,4.2l-1,0.5l2,0.9c4.2,2,6.1,5.1,6.4,10c0.2,4.2-0.6,6.8-2.9,9.3c-1.9,2-4,3.2-7,4.1
		c-1.6,0.5-3.8,0.6-15.1,0.7C724.8,1647.8,722.3,1647.8,722.2,1647.4L722.2,1647.4z M747.8,1640.8c5-1.9,6.6-8.4,2.8-12
		c-2-1.9-2.8-2.1-12.1-2.1h-8.2v7.2v7.2h8.3C743.6,1641.1,747.2,1641,747.8,1640.8L747.8,1640.8z M746.8,1620.2
		c2.4-1,3.6-2.9,3.6-5.9c0-2.3-0.5-3.7-1.9-4.9c-1.8-1.5-2.8-1.7-10.7-1.7l-7.3,0l-0.1,6.5l-0.1,6.5h7.7
		C744.2,1620.7,745.9,1620.6,746.8,1620.2L746.8,1620.2z"/>
</g>
</svg>
